<?xml version="1.0" encoding="UTF-8"?>
<svg id="Layer_2" data-name="Layer 2" xmlns="http://www.w3.org/2000/svg" viewBox="0 0 396.15 377.07">
  <defs>
    <style>
      .cls-1 {
        fill: #fff;
      }
    </style>
  </defs>
  <g id="Layer_1-2" data-name="Layer 1">
    <path class="cls-1" d="M79.59,326.23c-49.53-47.16-68.49-121.69-40.58-186.36C73.28,60.44,160.94,14.61,245.96,37.85c36.61,10.01,80.44,40.37,100.31,72.97,107.57,176.45-118.07,356.88-266.67,215.4ZM278.66,54.23c-21.24-11.48-44.8-18.39-69.03-19.4l33.02,8.76,19.96,10.33,16.05.31ZM184.18,36.04c-17.41.17-34.3,5.5-50.09,12.29l-11.67,7.09c4.59-1.21,10.65-.5,14.89-1.45,4.36-.98,12.18-8.13,17.49-9.17l29.39-8.76ZM256.85,53.01c-35.74-19.52-78.39-19.64-113.86.59,20.51,2.7,39.93,10.02,57.35,21.02l28.36-14.04,28.15-7.57ZM133.31,56.65c-13.64-.32-22.56,4.82-30.27,15.74l16.65-3.33,13.63-12.41ZM123.62,69.97h21.2c3.99,0,20.72,5.5,25.46,7.25,5.98,2.21,11.65,4.67,16.95,8.23l9.71-9.43c-10.86-7.05-23.34-13.06-35.98-16.14-10.64-2.6-22.5-6.23-30.64,2.85l-6.69,7.25ZM276.24,68.75c-5.62-5.85-11.25-12.46-19.94-12.12-16.96.67-38.81,10.62-52.71,20.01l10.23,7.86c3.66.08,6.78-4.32,9.11-5.26,1.08-.43,2.52.19,3.6-.22,16.77-6.31,31.47-10.15,49.7-10.27ZM298.05,72.39c-7.73-11.22-16.65-15.46-30.28-15.74,2.72,2.78,10.55,11.27,13.39,12.65,4.17,2.03,12.13,1.7,16.89,3.08ZM313.79,78.45c-1.11-3.13-16.57-14.66-18.17-13.31,4.93,6.79,9.47,11.81,18.17,13.31ZM103.03,66.34c-1.57-1.44-14.6,9.46-15.74,12.11,3.11.96,18.14-9.91,15.74-12.11ZM115.14,72.4c-4.25,1.76-12.35,1.63-15.68,4.29-1.58,1.26-9.48,13.92-8.52,15.1l14.45-4.31,9.75-15.08ZM173.28,80.9c-17.59-6.34-34.76-10.06-53.65-8.52l-9.32,14.57c17.73-3.3,36.51-.73,53.72,4.61l9.25-10.66ZM290.77,86.94c.91-.88-7.39-11.84-8.43-12.77-3.24-2.88-18.41-2.09-23.5-1.62-10.77,1-20.76,5.46-31.04,8.35l9.04,10.44c17.35-5.4,35.99-7.53,53.94-4.39ZM310.15,91.79c-3.43-12.72-10.71-18.76-24.21-18.17l9.02,13.39,15.2,4.78ZM94.55,78.47c-11.16,2.87-18.93,10.71-21.8,21.81.52.53,12.6-5.84,13.37-6.61,2.89-2.88,5.23-11.61,8.42-15.2ZM190.25,88.14l10.3,4.82,10.26-6.62-10.27-7.93c-2.12.82-11.9,7.58-10.29,9.73ZM328.32,101.5c-2.33-10.33-9.46-20.3-20.57-21.82,3.55,11.74,9.95,16.79,20.57,21.82ZM184.1,89.29c-4.08-11.11-11.76-3.94-15.64,3.12,7.93,6.44,9.7,1.34,15.64-3.12ZM232.63,92.99c-3.49-7.92-9.51-13.14-16.93-5.44,5.96,6.3,7.89,10.39,16.93,5.44ZM162.38,93.02c-14.37-2.63-28.24-5.97-43.05-4.9-14.91,1.07-13.49,4.08-18.73,17.01,10.4-2.89,21.29-4.21,32.1-4.16,5.09.02,21,2.59,23.97,1.77.78-.22,6.68-8.74,5.7-9.71ZM202.36,94.24l9.07,8.2,9.1-5.2-7.86-8.86-10.31,5.87ZM300.47,105.12l-8.07-15.55c-18.24-3.15-35.92-.97-53.7,3.45l6.58,10.51c18.23-4.34,37.14-3,55.19,1.59ZM197.5,94.24l-10.04-4.74-8.12,8.34c8.69,2.99,9.04,7.27,16.87-.67.98-.99,1.75-1.06,1.28-2.93ZM83.66,111.19c12.16-2.88,17.25-8.16,19.36-20.61-12.7,2.39-18.71,7.18-19.36,20.61ZM317.42,111.19c1.12-1.24-3.33-13.66-4.85-15.14-1-.97-15.08-5.98-15.73-5.46l6.35,15.45,14.24,5.14ZM58.23,111.2c6.91-3.08,11.55-9.79,13.3-16.97-2.75.78-14.52,15.63-13.3,16.97ZM342.85,112.41c1.05-1.2-10.04-17.31-13.3-18.19.9,9.25,6.38,13.19,13.3,18.19ZM174.49,97.87l-8.87-2.32-5.66,8.35,7.7,2.2,6.83-8.23ZM241.11,103.91l-5.66-8.35c-1.83-.67-8.74,1.42-8.85,2.9l5.01,7.76,9.5-2.31ZM65.5,123.32c2.86-3.61,11.06-6.2,13.36-9.04,1.22-1.51,5.31-15.75,4.78-16.42-3.24,2.55-11.68,5.6-13.83,8.57-1.32,1.82-4.93,16.09-4.31,16.89ZM192.67,105.12c7.46,3.41,9.31,4.34,15.72-1.8-5.55-6.86-12.76-7.13-15.72,1.8ZM330.44,105.43c-.6-.64-9.33-5.36-11.17-6.39-.89-.5-2.05-2.49-3.05-.58l5.1,16.11,14.26,8.75c.64-.7-3.89-16.54-5.14-17.88ZM170.86,107.55c7.67,1.56,10.35,4.69,15.72-3.02l-9.08-5.12-6.65,8.14ZM229,107.55c-3.24-9.37-8.54-7.96-15.74-3.61l6.83,5.75,8.91-2.14ZM153.9,105.14c-9.74-1.52-47.59-2.98-53.89,3.64s-3.74,45.74-.6,55.77l37.61-21.15,16.88-38.26ZM301.67,165.76c3.4-18.96,5.8-38.26-.59-56.98-17.18-6.64-35.97-5.35-53.9-3.63l17.25,39.71c13.69,4.49,25.34,13.15,37.24,20.9ZM166.01,107.57c-3.87.33-6.67-2.76-9.74.54-3.02,3.24-17.68,32.51-15.69,34.61l6.13-2.04,19.3-33.11ZM197.51,111.18c-4.06-4.98-9.35-6.8-13.3-.59,5.4,4.85,7.85,4.08,13.3.59ZM209.3,106.5c-2.05.29-4.3,2.59-5.71,4.09,3.83,5.43,8.84,4.01,13.28,0-2.08-1.65-4.82-4.47-7.57-4.09ZM260.49,142.71c1.08-1.07-4.81-14.35-5.84-16.58-1.63-3.54-9.74-19.66-12.81-19.73l-6.78,1.16c-1.2,1.19,7.64,12.45,8.98,14.64,1.87,3.07,11.86,25.06,16.45,20.5ZM178.13,111.2l-9.52-2.32-18.33,31.4c.79.8,6.16-1.94,7.34-2.94,2.9-2.46,16.81-19.43,19.3-23.11.68-1,1.72-1.15,1.2-3.03ZM250.8,140.29l-18.73-30.43-9.12,1.35c-.84.9,3.93,6.68,4.88,7.84,3.55,4.34,11.48,14.58,15.03,17.69,2.22,1.94,4.93,3.47,7.94,3.55ZM49.75,140.29c2.62-4.13,10.77-9.78,12.4-13.64,1.87-4.44,1.47-11.76,3.32-16.67-10.86,7.81-16.4,16.39-15.72,30.31ZM96.98,110c-5.34.4-14.79,3.21-15.63,9.15-2.33,16.5.29,40.08,7.76,55.07,2.35-2.56,7.42-4.12,7.91-7.92.64-5.06-3.47-19.56-3.72-26.55-.35-9.65.69-20.54,3.69-29.75ZM318.35,115.12l-14.25-5.13c2.27,9.75,4,19.69,3.69,29.76-.21,6.93-4.49,21.65-3.71,26.55.28,1.75,5.7,7.7,6.72,7.93,1.97.45,2.5-1.6,3.09-2.92,4.09-9.06,9.44-49.15,4.47-56.19ZM351.33,140.29c-.7-5.09-.79-13.68-3.11-18.09-.89-1.69-12.48-13.35-13.84-12.2,3.77,4.58,2.14,12.17,4.27,16.93,1.19,2.66,10.4,10.02,12.67,13.37ZM195.09,117.25c3.92.79,7.83,1.59,10.88-1.81-2.76-4.18-10.34-3.49-10.88,1.81ZM161.19,137.87c1.56,1.56,24.68-19.17,27.82-21.22-1.87-1.99-5.87-3.61-8.41-2.47-.82.37-10.45,11.48-12.12,13.42-1.06,1.23-8.14,9.42-7.29,10.27ZM239.91,137.86c1.2-.95-18.03-23.05-19.43-23.67-3.22-1.42-6.33,1.61-9.63,1.87l23.06,19.93,6,1.87ZM78.8,117.26c-12.75,8.3-15.36,8.94-14.51,24.84.81,15.05,5.99,32.07,12.71,45.46l9.03-11.43c-7.22-18.91-8.68-38.89-7.22-58.86ZM197.5,119.7c-2.77-.77-4.16-1.68-7.19-.62-5.13,1.8-16.37,13.37-20.66,17.57l6.44-2.64,21.41-14.31ZM230.21,136.65c-3.21-4.27-16.86-17.47-21.23-18.19-2.28-.37-3.99-.17-5.39,1.83l26.62,16.36ZM322.27,118.47v29.7l-7.29,27.85,9.69,11.55c2.82-7.95,6.22-15.72,8.14-24,1.96-8.48,4.06-21.4,4.09-29.96.03-7.3-8.52-12.45-14.64-15.15ZM179.34,135.44h42.39l-21.19-13.25c-7.45,3.12-15.35,7.7-21.21,13.25ZM31.56,191.21c-.07-6.47,1.55-12.95,3.33-19.1,4.19-14.48,13.97-25.79,12.42-41.51l-6.61,12.16c-4.52,12.17-9.25,26.39-10.32,39.38-.16,1.91-1.04,8.26,1.18,9.07ZM370.71,193.64c-.01-16.1-3.94-32.1-9.09-47.26l-7.84-15.78c-2.93,14.77,6.61,23.83,10.93,36.93l6,26.1ZM67.88,200.91l6.86-11.5c-9.24-17.73-12.68-37.73-13.5-57.59-3.82,4.02-11.8,11.38-12.07,17.06-.44,9.31,4.56,26.5,8.12,35.39,1.21,3.03,5.91,13.53,7.63,15.4,1,1.08,1.22,1.64,2.96,1.25ZM335.58,200.91c6.71-15.25,15.67-33.21,15.87-50.32.09-7.51-6.87-13.55-11.62-18.78-1.36,20.02-4.78,39.69-13.73,57.82,1.08,1.88,7.38,12.82,9.48,11.28ZM197.28,140.65c-92.4,4.96-72.73,144.43,16.04,126.41,77.69-15.77,62.62-130.64-16.04-126.41ZM103.05,177.88c5.27-4.63,10.36-9.41,15.86-13.81,3.27-2.62,20.37-11.88,16.82-16.49-5.83,2.06-11.24,5.17-16.55,8.28-3.58,2.09-18.35,10.93-18.51,14.09l2.39,7.94ZM298.03,176.66c.07-3.19,3.54-6.23,1.34-9.13-1.38-1.82-32.84-21.55-34.02-19.96-1.29,8.03,7.02,9.41,12.48,13.56,5.83,4.42,11.49,10.47,17.18,14.33,1,.68,1.16,1.72,3.02,1.2ZM354.96,256.68c17.18-33.14,18.09-72.78-.59-105.49-2.18,19.59-9.67,36.2-17.56,53.88l9.4,19.77,8.75,31.84ZM47.31,152.42c-3.15-.65-1.88.6-2.54,1.73-6.27,10.8-11.29,31.19-12.04,43.67-1.16,19.17,3.23,43.16,14.58,58.86.15-18.91,9.18-36.04,16.92-52.76-8.8-15.83-15.98-33.21-16.91-51.51ZM294.4,188.79c-.41-3.82,3.51-5.82,1.33-9.12-1.92-2.89-27.99-23.83-29.16-22.4-.11,8.08,4.85,9.03,9.1,13.3,4.14,4.16,12.07,14.55,15.7,17.02,1.02.69,1.18,1.7,3.03,1.2ZM133.31,158.49c-1.71-1.88-29.25,19.75-28.87,23.4l2.24,6.9c1.84.49,2.01-.49,3.04-1.2,1.34-.92,21.63-22.19,22.45-23.6,1.13-1.93,1.45-3.27,1.14-5.51ZM132.09,168.18c-1.22-1.59-20.27,20.08-21.66,22.66-1.55,2.91-.66,4.21,1.68,6.41l18.61-23.78,1.37-5.29ZM270.16,168.2l-2.38.57,21.18,29.7c6.68-4.61-3.27-13.69-7.25-18.18-3.66-4.13-9.24-7.73-11.55-12.09ZM93.36,187.58c7.48-5.25,10.51-8.68,4.22-16.95l-7.71,6.77,3.49,10.18ZM311.29,176.79c-2.73.66-7.1-7.86-9.01-4.98-4.59,6.93-1.45,10.64,3.66,15.76,2.46.55,1.67-.97,2.34-2.43.61-1.34,3.44-7.75,3.02-8.35ZM285.92,202.12c-2.69-9.5-10.04-18.51-16.93-25.45l1.9,4.75,15.03,20.7ZM115.57,202.12l16.08-25.45s-16.92,19.52-17.7,21.8l1.62,3.66ZM88.49,180.31c-1.61-1.46-8.69,9.04-10.61,10.29l6.39,10.31c2.35.55,1.51-.68,2.12-1.52,2-2.8,3.95-5.87,5.49-8.96l-3.39-10.12ZM317.4,200.91c4.91-8.28,6.84-12.68-1.76-19.43-1.06-.83-1.32-1.6-3.05-1.17-4.77,9.42-3.28,11.62,2.3,19.85l2.5.75ZM284.5,203.93c-5.92-6.47-15.53-21.2-15.53-21.2v42.44M103.02,183.95c-9.33,3.09-6.88,8.7-3.6,15.76,8.11-3.43,7.11-9.08,3.6-15.76ZM132.1,225.15c-2.37-7.1-2.7-14.62-2.79-22.49-.07-5.88.89-12.66.98-18.71l-13.92,20M299.27,200.91c6.48-5.47,8.01-13.94-1.21-16.97-4.41,8.7-3.3,8.93,1.21,16.97ZM77.58,193.64c-2.52-1.86-7.97,8.83-9.48,10.52l7.7,11.29c2.41.48,1.48-.52,2.07-1.53,1.62-2.81,3.02-5.96,4.59-8.83l-4.88-11.45ZM94.54,214.25c5.35-9.44,5.23-11.25-.58-20.6l-7.48,10.3,5.56,9.54,2.51.76ZM308.92,193.65l-2.48.73-4.71,9.54,4.81,10.32,8.06-10.31-5.68-10.3ZM325.88,215.46l6.9-11.5c-1.45-1.76-6.71-12.07-9.28-10.31l-5.69,10.31,5.58,10.76,2.48.73ZM107.27,196.09l-5.26,8.09,5.26,7.63c5.1-4.97,4.72-10.59,0-15.71ZM294.4,211.83l4.51-7.88-5.1-7.88c-5.09,5.17-5.41,11.28.58,15.75ZM128.46,227.59l-14.51-21.82c2.09,8.11,8.3,16.37,14.51,21.82ZM270.2,231.23c6.45-7.5,13.79-15.96,16.93-25.46-5.7,5.9-10.57,13.7-15,20.74-.95,1.5-2.34,2.68-1.93,4.72ZM61.84,276.08c-.33-19.52,3.87-39.38,13.14-56.6l-8.9-12.5c-7.09,13.9-18.53,38.24-17.01,54.01.2,2.03,11.13,16.93,12.77,15.09ZM88.48,227.59c5.48-9.56,3.14-13.74-4.81-20.61l-4.7,12.47c1.22,1.7,7.81,9.38,9.51,8.13ZM103.02,223.95c3.74-7.29,2.49-10.51-1.79-16.97l-5.43,10.33c.05,2.11,5.74,7.71,7.23,6.63ZM298.06,225.16c.56.58,7.16-6.18,7-8.07l-5.2-10.11-5.2,8.06,3.4,10.12ZM317.41,206.98c-2.79-.71-1.99.56-2.75,1.53-6.21,7.89-6.6,9.94-2.06,19.08,1.7,1.25,9.2-6.87,9.42-9.28l-4.61-11.33ZM339.24,276.09c3.27-2.44,9.73-8.86,11.18-12.43,2.77-6.83-2.19-24.95-4.58-32.38-.73-2.26-10.06-26.08-12.65-24.3l-7.07,12.52c8.7,17.51,13.02,37.03,13.12,56.59ZM267.76,240.92c2.27.53,2.88-1.27,4.24-2.41,3.38-2.83,19.55-20.62,19.56-23.64,0-1.51-2.21-3.56-2.01-5.46l-21.79,31.51ZM112.7,210.63c-3.18-.96-3.93,3.5-3.03,5.97,2.49,6.81,16.91,18.86,22.42,24.33.27-2.21,0-3.6-1.13-5.52-2.84-4.84-11.56-14.22-15.6-19.55-1.19-1.58-2.37-3.2-2.66-5.22ZM352.56,278.51c12.23-17.37,17.1-40.81,18.14-61.83l-7.54,28.2c-1.02,5.31-8.19,13.16-9.15,17.51-1.06,4.81.36,10.95-1.45,16.12ZM47.3,277.3c1.46-11.32-3.08-19.42-8.18-28.78l-8.75-30.62c-.12,12.56,2.88,25.68,6.64,37.59,2.22,7.05,5.23,16.45,10.29,21.81ZM133.31,250.62c3.39-3.73-12.87-16.84-15.77-19.97-1.61-1.73-8.98-12.97-10.85-11.55-.48,4.13-3.65,6.33-1.32,10.34.47.81,11.11,10.05,12.85,11.44,1.59,1.27,14.14,10.78,15.1,9.73ZM294.4,219.1c-1.86-1.72-11.61,12.2-13.28,13.98-5.36,5.67-13.38,9.09-14.57,17.54,1.93,1.83,29.24-19.06,30.03-23.85.32-1.92-2.81-5.08-2.18-7.67ZM99.39,237.29l2.03-9.12-6.26-7.85c-6.97,8.1-6.68,13.9,4.23,16.97ZM307.72,220.32c-7.47,5.25-10.52,8.68-4.23,16.94l7.69-6.82-3.45-10.13ZM78.8,290.64c-2.51-20.18.69-39.64,7.3-58.77l-9.69-10.33c-5.64,10.38-17.48,51.62-10.55,60.27.68.86,12.48,9.47,12.95,8.83ZM322.27,259.72c1.03,9.73-.75,21,0,30.92,4.48-2.67,13.07-7.7,14.28-12.98,1.58-6.9-1.85-25.88-3.73-33.34-1.97-7.85-5.66-15.13-8.15-22.78-1.68-.34-1.54-.25-2.51.77-2.46,2.61-4.99,6.95-8.04,9.51,3.05,7.99,7.25,19.51,8.14,27.9ZM134.15,254.64c-1.28-1.68-14.93-9.87-18.36-12.53-1.42-1.1-12.08-11.39-12.74-10.88-.14,3.52-4.15,7.36-1.23,10.28,4.24,2.82,31.36,21.2,33.92,18.81-.25-1.62-.65-4.46-1.59-5.68ZM298.03,231.23c-2.08-.6-2,.64-2.86,1.34-3.22,2.61-6.57,6.89-9.88,9.53-3.98,3.18-16.81,10.44-18.73,12.78-1.51,1.84-1.39,3.22-1.22,5.44,2.13,2.41,31.12-17.05,34.94-19.6l-2.26-9.49ZM96.97,299.12c-5.53-18.87-4.45-38.82.79-57.63l-9.25-7.83c-6.07,15.86-9.85,38.21-7.21,55.09.98,6.26,10.09,9.33,15.67,10.37ZM304.11,299.12c1.01.93,12.07-4.25,13.28-5.48,7.02-7.16.22-49.66-4.82-59.98l-9.22,7.82c4.55,19.12,6.8,38.56.76,57.64ZM136.64,264.27l-13.82-6.17-23.41-14.75c-3.31,9.73-5.85,51.68,1.23,57.56,7.39,6.14,42.99,4.08,53.26,3.05.95-.88-8.58-16.92-9.9-19.79-2.91-6.34-5.25-13.26-7.37-19.91ZM247.17,303.97c17.93,1.71,36.72,3.01,53.9-3.63,6.44-18.66,4.14-38.06.59-56.98-12,7.74-24.03,15.31-37.23,20.91l-17.26,39.71ZM260.48,265.18c-8.21,2.05-8.55,8.92-12.34,14.92-3.84,6.09-7.87,12.28-12.5,17.81l.63,3.02c.83.56,5.57,1.75,6.51,1.57,3.71-.71,19.59-34.92,17.68-37.32ZM139.37,266.4c2.63,5.57,14.09,35.16,18.9,36.1l6.52-1.58c1.54-1.08,1.47-1.41.63-3.02-1.54-2.95-6.16-7.44-8.39-11.01-2.71-4.34-11.32-25.15-17.67-20.5ZM65.48,297.9c-2.71-4.66-1.33-12.39-3.31-16.68-1.14-2.49-4.23-3.16-5.83-5.08-2.22-2.67-3.94-6.48-6.6-8.53.1,5.14.15,13.2,2.11,17.87.83,1.97,12.13,13.65,13.62,12.42ZM335.61,297.91c12.55-6.35,15.36-16.96,15.72-30.31-2.27,3.34-11.48,10.71-12.67,13.37-1.74,3.9-1.56,12.36-3.05,16.94ZM150.28,268.82c-1.27,1.27,16.14,28.45,18.18,29.73,2.42,1.52,6.88-.28,9.09-1.84.69-.9-2.25-4.39-3.08-5.44-3.26-4.14-12.88-15.96-16.24-18.9-2.22-1.95-4.92-3.47-7.94-3.55ZM250.8,268.82c-8.32,0-11.56,9.25-16.33,14.56-1.39,1.55-13.3,12.58-12.73,13.31,3.37.22,7.68,3.87,10.88,1.86,2.03-1.27,19.48-28.52,18.18-29.73ZM189.02,291.87c-4.85-.53-25.33-22.97-27.85-20.62,1.19,3.54,4.84,7.31,7.29,10.27,1.77,2.14,10.86,12.88,12.12,13.41,1.45.61,7.77-.93,8.43-3.06ZM239.9,271.24c-1.55-1.46-7.57,3.72-9.04,4.88-6.2,4.88-12.34,11.47-18.79,16.33,1.89,1.99,5.84,3.61,8.4,2.47,1.2-.53,11.51-12.43,13.34-14.62.96-1.15,6.95-8.24,6.08-9.05ZM230.21,272.46l-26.64,16.36c3.87,7.82,15.1-6.47,19.4-8.46l7.24-7.9ZM197.5,288.23c-9.86-2.61-17.01-12.62-26.64-14.55,3.87,3.46,16.67,16.44,20.59,17.54.99.28,6.01-1.23,6.05-2.99ZM221.74,273.66h-43.61l14.18,9.45,8.24,3.8,21.19-13.26ZM83.65,310.03c.55-.6-3.73-14.89-4.27-15.71-1.39-2.08-11.67-6.19-13.88-9.74-.59.78,2.55,15.73,3.56,17.34.66,1.06,13.89,8.87,14.59,8.12ZM316.22,310.02c14.35-3.51,17.78-11.64,19.37-25.45-3.09,3.6-12.2,7.03-14.39,10.44-2.3,3.58-2.32,11.02-4.98,15.01ZM204.77,291.86c-1.7-1.47-11.27-1.48-9.68,1.79,1.95,4.01,9.76,3.43,9.68-1.79ZM197.51,299.11c-4.36-6.41-7.24-3.87-13.32-2.4-1.19,1.29,3.2,5.45,4.49,5.89l8.83-3.49ZM216.89,296.71l-7.88-2.39-6.65,4.79,8.83,3.53,5.7-5.92ZM71.53,314.89c-1.92-9.2-7.25-14.13-14.51-19.4-1.18,1.35,11.06,18.46,14.51,19.4ZM97.91,303.04c-1.63-1.64-11.63-3.73-14.25-6.34-1.02,1.37,2.89,15.15,5.64,16.78l13.73,3.83c.55-.52-4.58-13.73-5.11-14.27ZM298.05,317.31c13.39-1.16,18.39-7.51,19.36-20.61-3.05,2.87-11.69,3.76-13.91,6.07-.89.93-6.15,13.84-5.45,14.54ZM328.34,316.1c3.29-.66,15.52-18.3,14.51-19.4-8.68,3.88-12.33,10.44-14.51,19.4ZM186.61,305.17c-4.43-7.81-8.4-6.3-15.74-3.6l5.67,7.34c3.88.83,6.56-3.11,10.08-3.74ZM229,301.56c-6.93-2.92-11.18-3.18-15.74,3.61,7.51,3.24,12.3,6.34,15.74-3.61ZM208.41,303.99c-7.43-2.64-6.9-5.69-14.22-.33-.82.6-2.07-.24-1.52,2.12l7.65,5.28c.71-1.22,10.06-4.98,8.09-7.06ZM174.49,311.23c-2.46-7.13-7.25-9.57-14.54-7.25-1.51,1.55,4.12,8.35,5.66,9.57l8.87-2.32ZM226.58,311.23l8.89,2.32,5.61-7.76-8.87-2.89-5.63,8.34ZM106.97,318.21c5.94,5.69,55.11.8,55.39-3.93l-6.55-8.69c-17.76,3.15-36.53,3.37-53.98-1.62-.91.98,3.88,13.03,5.14,14.23ZM300.47,303.99c-17.97,4.54-36.98,5.05-55.2,1.61l-6.55,8.69c8.36,5.79,50.66,9.74,55.76,3.38l5.99-13.68ZM85.75,314c-2.48-2.48-10.99-3.76-13.61-7.59-.91-.19-.78,1.17-.58,1.79,3.22,10.2,11.2,18.86,21.77,21.24.58-.63-6.97-14.83-7.58-15.44ZM188.65,306.59c-1.15.1-9.28,4.58-9.29,5.27l8.03,7.7,10.1-6.49c0-.55-7.63-6.59-8.84-6.48ZM211.43,306.82c-2.18.02-6.83,4.96-9.05,6.24l11.31,6.47,6.84-7.66c-.22-.94-7.97-5.06-9.1-5.06ZM328.32,307.62c-11.82,2.96-17.31,11.21-21.8,21.81,12.22-1.38,18.32-10.79,21.8-21.81ZM184.18,322.14c1.23-1.77-6.23-8.02-7.85-9.33l-7.86,3.88,8.02,8.92,7.69-3.48ZM226.05,326.08l6.55-9.39-8.93-4.07-6.79,8.91,9.16,4.55ZM212,321.85l-12.49-6.77c-1.34,2.21-11.01,5.74-9.25,8.27l10.29,6.93c.58,0,8.59-5.92,9.52-6.81,1.01-.96,1.94-1.63,1.94-1.63ZM285.94,335.49c13.67.15,20.32-7.03,24.21-19.39l-15.44,5.15-8.77,14.24ZM106.4,321.22l-15.47-3.9c3.76,12.37,11.23,17.99,24.22,18.17l-8.75-14.27ZM165.82,317.48c-15.57,4.21-30.24,6.54-46.48,5.94-1.81-.07-10.37-2.98-9.02.54l9.69,12.13c4.15,1.89,21.86-.35,34.72-3.35,11.49-2.68,18.47-6.07,18.47-6.07,0,0-.12-.27-1.11-1.48-2.35-2.87-2.33-2.79-6.27-7.71ZM290.77,322.17c-18.17,3.03-36.19.15-53.75-4.58-2.11.94-9.39,8.74-8.02,10.62,15.68,5.15,18.17,5.43,30.72,7.34,7.03,1.07,13.59,2.31,19.52,1.14,2.83-.56,12.68-13.53,11.52-14.52ZM142.86,338.51c-5.97.6-11.15,1.52-17.22,1.96l13.41,11.82c20.96-1.08,40.57-8.84,58.45-19.24l-.77-2.5-9.72-6.97c-4.15,2.33-4.31,2.28-10.24,5.58-12.87,5.2-13.35,5.44-20.84,7.05-4.76,1.02-9.62,1.96-13.08,2.31ZM226.03,329.05c-4.05-2.42-4.09-2.41-11.46-5.74l-10.22,7.24-.77,2.5c14.37,7.94,30.36,15.99,46.96,17.87,13.29,1.51,16.32-1.36,25.7-9.99.51-2.74-1.2-1.67-3-1.8-11.51-.83-37.78-4.47-47.21-10.09ZM104.24,342.76c-4.1-7.53-9.28-10.22-16.95-13.32-.56,2.39,1.23,2.87,2.53,4.13,1.66,1.61,12.97,10.47,14.42,9.2ZM312.58,330.66c-8.78,1.44-13.06,6.62-18.17,13.31,1.53,1.35,17.3-10.01,18.17-13.31ZM258.07,353.7c-20.9.22-39.65-9.73-57.53-19.34-17.86,10.44-35.99,17.28-56.34,21.15,31.45,17.48,68.06,19.92,101.37,5.67,4-1.71,9.77-4.23,12.5-7.48ZM132.1,351.25c-8.71-9.37-15.49-14.71-29.07-14.52,7.54,10.57,15.6,15.65,29.07,14.52ZM296.83,336.72c-12.46-.33-20.1,5.59-27.86,14.52,13.13,1.46,21.21-3.83,27.86-14.52ZM187.82,371.88c-8.63-.35-18.15-2.92-26.37-5.74-13.44-4.62-24.18-14.31-39.03-12.44.63,1.85,4.33,3.35,6.07,4.21,15.41,7.61,32.35,11.87,49.18,15.03l10.14-1.05ZM277.45,353.7c-14.22-1.57-24.15,8.02-36.92,12.13l-27.27,7.24c17.09,0,36.08-4.93,51.68-11.9,4.05-1.81,9.62-4.06,12.51-7.47Z"/>
    <path class="cls-1" d="M29.77,311.23C-33.7,203.69,7.59,67.12,122.45,17.27c91.2-39.58,198.16-9.12,255.67,70.79l14.39-8.38,3.63,35.15-33.38-17.78,14.2-8.26c-23.42-25.41-49.88-46.88-82.23-59.76C130.44-36.4-37.95,115.08,20.65,285.2"/>
    <path class="cls-1" d="M199.85,158.31c-3.44,39.4-6.22,42.19-45.62,45.62,39.4,3.44,42.19,6.22,45.62,45.62,3.44-39.4,6.22-42.19,45.62-45.62-39.4-3.44-42.19-6.22-45.62-45.62Z"/>
  </g>
</svg>