<?xml version="1.0" encoding="UTF-8"?>
<svg id="Layer_2" data-name="Layer 2" xmlns="http://www.w3.org/2000/svg" viewBox="0 0 787.18 837.57">
  <defs>
    <style>
      .cls-1 {
        fill: #003438;
      }

      .cls-2 {
        fill: #001517;
      }
    </style>
  </defs>
  <g id="Layer_1-2" data-name="Layer 1">
    <path class="cls-2" d="M630.55,826.09l-11.13,8.03v-111.04l11.13-8.95v111.95Z"/>
    <path class="cls-2" d="M82.84,818.2c-.04-3.37-.06-3.62-.18-5.91-.11-2.29-.17-4.82-.17-7.61v-89.19l11.21,8.12v111.87h0c-7.23,0-14-3.55-18.11-9.5l-60.03-86.81c-.84-1.23-1.66-2.48-2.47-3.77-.81-1.28-.84-1.29-2.22-3.74h0c.04,2.36.05,2.37.13,4.16.08,1.79.13,4.02.13,6.69v92.96l-11.13-8.03v-111.95h0c7.7,0,14.91,3.79,19.28,10.13l58.54,85c1,1.51,1.91,2.92,2.72,4.23"/>
    <path class="cls-2" d="M220.64,837.57c-8.65,0-16.43-1.58-23.34-4.73-6.92-3.15-12.79-7.46-17.61-12.93-4.83-5.47-8.53-11.89-11.13-19.29-2.59-7.39-3.89-15.32-3.89-23.8,0-9.37,1.3-17.95,3.89-25.73,2.59-7.78,6.37-14.45,11.34-20,4.96-5.55,11.04-9.87,18.24-12.97,7.2-3.1,15.4-4.64,24.6-4.64,8.48,0,16.09,1.52,22.84,4.56,6.75,3.04,12.49,7.25,17.24,12.63,4.74,5.38,8.38,11.76,10.92,19.12,2.54,7.36,3.81,15.37,3.81,24.01,0,9.09-1.24,17.53-3.72,25.31-2.48,7.78-6.14,14.52-10.96,20.21-4.83,5.69-10.77,10.15-17.82,13.39-7.06,3.23-15.19,4.85-24.39,4.85ZM221.56,723.61c-7.25,0-13.68,1.38-19.29,4.14-5.61,2.76-10.33,6.5-14.18,11.21-3.85,4.71-6.76,10.24-8.74,16.57-1.98,6.33-3,13.07-3.05,20.21-.06,6.81.82,13.32,2.64,19.54,1.81,6.22,4.55,11.71,8.2,16.48,3.65,4.77,8.27,8.58,13.85,11.42,5.58,2.84,12.1,4.27,19.58,4.27s14.04-1.3,19.7-3.89c5.66-2.59,10.39-6.19,14.18-10.79,3.79-4.6,6.65-10.08,8.58-16.44,1.92-6.36,2.89-13.3,2.89-20.83,0-7.03-.85-13.69-2.55-20-1.7-6.3-4.35-11.81-7.95-16.53-3.6-4.71-8.19-8.45-13.76-11.21-5.58-2.76-12.27-4.14-20.08-4.14Z"/>
    <polygon class="cls-2" points="348.49 835.48 348.49 715.49 406.98 715.49 401.12 725.7 359.62 725.7 359.62 769.71 400.09 769.71 399.66 779.75 359.62 779.75 359.62 825.35 403.98 825.35 409.66 835.48 348.49 835.48"/>
    <polygon class="cls-1" points="376.69 705.7 367.65 705.7 386.73 678.26 406.03 678.26 376.69 705.7"/>
    <path class="cls-2" d="M515.92,725.7v100.19l-11.13,9.59v-109.78h-34.56l5.18-10.21h75.15l-5.22,10.21h-29.42Z"/>
    <path class="cls-1" d="M208.82,818.74l-11.13-2.99v-80.79l11.13-4.27v88.05Z"/>
    <path class="cls-1" d="M226.67,822.13h-11.13v-96h11.13v96Z"/>
    <path class="cls-1" d="M245.01,813.55l-11.13,5.53v-88.34l11.13,3.92v78.89Z"/>
    <path class="cls-2" d="M787.18,831.04c-9.26,4.35-19.83,6.53-31.71,6.53-8.48,0-16.18-1.49-23.09-4.48-6.92-2.98-12.82-7.13-17.7-12.43-4.88-5.3-8.65-11.6-11.3-18.91-2.65-7.31-3.97-15.28-3.97-23.93,0-9.09,1.41-17.56,4.23-25.39,2.82-7.84,6.85-14.64,12.09-20.42,5.24-5.77,11.59-10.3,19.04-13.6,7.45-3.29,15.8-4.94,25.06-4.94,10.21,0,19.33,1.56,27.36,4.69v11.88c-8.59-4.29-17.77-6.44-27.53-6.44-7.75,0-14.64,1.34-20.67,4.02-6.02,2.68-11.1,6.4-15.23,11.17-4.13,4.77-7.28,10.4-9.45,16.9-2.18,6.5-3.26,13.6-3.26,21.29,0,6.92.98,13.43,2.93,19.54,1.95,6.11,4.84,11.45,8.66,16.02,3.82,4.57,8.58,8.2,14.27,10.88,5.69,2.68,12.3,4.02,19.83,4.02,11.55,0,21.7-2.43,30.46-7.28v10.88Z"/>
    <path class="cls-2" d="M207.48,512.44c-77.81-74.08-107.58-191.15-63.75-292.75C197.56,94.94,335.26,22.95,468.81,59.45c57.51,15.72,126.35,63.42,157.57,114.63,168.98,277.18-185.47,560.6-418.9,338.36ZM520.17,85.18c-33.37-18.04-70.37-28.89-108.43-30.48l51.86,13.76,31.35,16.23,25.21.48ZM371.77,56.61c-27.35.27-53.89,8.64-78.68,19.3l-18.34,11.13c7.22-1.9,16.73-.78,23.39-2.27,6.85-1.54,19.13-12.77,27.47-14.4l46.16-13.76ZM485.93,83.28c-56.14-30.67-123.14-30.86-178.86.93,32.21,4.23,62.72,15.73,90.09,33.01l44.55-22.05,44.21-11.89ZM291.86,88.99c-21.43-.5-35.44,7.57-47.56,24.72l26.15-5.23,21.4-19.49ZM276.65,109.92h33.3c6.26,0,32.54,8.64,39.99,11.39,9.39,3.47,18.29,7.33,26.63,12.93l15.25-14.82c-17.07-11.08-36.67-20.51-56.52-25.36-16.72-4.08-35.35-9.79-48.14,4.47l-10.51,11.38ZM516.38,107.99c-8.83-9.2-17.68-19.57-31.33-19.03-26.64,1.05-60.96,16.69-82.8,31.43l16.08,12.34c5.75.13,10.66-6.79,14.32-8.26,1.69-.68,3.95.3,5.66-.34,26.35-9.91,49.43-15.95,78.08-16.13ZM550.63,113.71c-12.14-17.62-26.15-24.28-47.57-24.72,4.27,4.37,16.57,17.71,21.03,19.88,6.54,3.19,19.05,2.68,26.54,4.84ZM575.37,123.23c-1.75-4.92-26.03-23.03-28.54-20.91,7.74,10.66,14.88,18.56,28.54,20.91ZM244.29,104.21c-2.47-2.26-22.93,14.86-24.72,19.02,4.89,1.5,28.49-15.56,24.72-19.02ZM263.31,113.73c-6.67,2.76-19.4,2.56-24.64,6.75-2.48,1.98-14.89,21.87-13.39,23.72l22.71-6.77,15.32-23.69ZM354.65,127.08c-27.63-9.96-54.6-15.8-84.27-13.39l-14.64,22.89c27.85-5.18,57.35-1.14,84.39,7.25l14.52-16.74ZM539.2,136.57c1.43-1.39-11.61-18.61-13.24-20.05-5.09-4.52-28.92-3.29-36.92-2.55-16.92,1.57-32.62,8.57-48.76,13.11l14.2,16.39c27.25-8.48,56.53-11.83,84.73-6.9ZM569.65,144.19c-5.39-19.98-16.82-29.47-38.03-28.55l14.17,21.04,23.87,7.51ZM230.98,123.27c-17.53,4.5-29.74,16.83-34.24,34.25.82.83,19.8-9.17,21.01-10.38,4.54-4.52,8.21-18.24,13.23-23.88ZM381.3,138.46l16.18,7.58,16.12-10.41-16.14-12.45c-3.33,1.29-18.69,11.91-16.17,15.28ZM598.18,159.43c-3.66-16.22-14.86-31.89-32.32-34.27,5.57,18.44,15.63,26.37,32.32,34.27ZM371.65,140.27c-6.41-17.45-18.47-6.19-24.56,4.9,12.46,10.12,15.24,2.11,24.56-4.9ZM447.88,146.07c-5.48-12.45-14.94-20.64-26.6-8.54,9.35,9.89,12.39,16.32,26.6,8.54ZM337.53,146.11c-22.57-4.13-44.36-9.38-67.62-7.7-23.43,1.69-21.18,6.41-29.41,26.72,16.34-4.54,33.45-6.61,50.42-6.53,8,.04,32.99,4.06,37.65,2.77,1.23-.34,10.49-13.74,8.96-15.26ZM400.32,148.04l14.25,12.88,14.29-8.17-12.35-13.92-16.19,9.22ZM554.44,165.13l-12.68-24.42c-28.66-4.94-56.42-1.52-84.35,5.41l10.34,16.51c28.64-6.82,58.35-4.71,86.7,2.5ZM392.7,148.04l-15.77-7.45-12.75,13.11c13.65,4.7,14.2,11.42,26.51-1.05,1.54-1.56,2.74-1.67,2.02-4.6ZM213.87,174.66c19.09-4.53,27.1-12.82,30.41-32.37-19.95,3.75-29.39,11.27-30.41,32.37ZM581.06,174.66c1.75-1.95-5.23-21.46-7.62-23.78-1.57-1.52-23.69-9.39-24.71-8.57l9.97,24.27,22.36,8.08ZM173.92,174.67c10.86-4.84,18.14-15.37,20.89-26.66-4.32,1.23-22.8,24.55-20.89,26.66ZM621.01,176.57c1.65-1.89-15.78-27.19-20.89-28.57,1.42,14.53,10.03,20.72,20.89,28.57ZM356.55,153.74l-13.94-3.64-8.88,13.12,12.1,3.45,10.72-12.93ZM461.2,163.22l-8.88-13.12c-2.87-1.05-13.72,2.23-13.9,4.55l7.86,12.19,14.92-3.63ZM185.34,193.71c4.49-5.67,17.37-9.74,20.99-14.21,1.92-2.37,8.34-24.73,7.51-25.79-5.08,4-18.35,8.8-21.73,13.46-2.07,2.86-7.74,25.28-6.77,26.53ZM385.1,165.12c11.72,5.35,14.62,6.81,24.69-2.83-8.71-10.77-20.04-11.19-24.69,2.83ZM601.52,165.62c-.94-1-14.66-8.42-17.55-10.04-1.4-.79-3.22-3.91-4.79-.92l8.02,25.3,22.4,13.75c1.01-1.09-6.12-25.98-8.08-28.09ZM350.85,168.94c12.04,2.46,16.27,7.37,24.7-4.74l-14.26-8.04-10.44,12.78ZM442.18,168.94c-5.09-14.71-13.42-12.5-24.73-5.67l10.73,9.03,14-3.37ZM324.2,165.16c-15.3-2.39-74.76-4.68-84.65,5.71s-5.88,71.85-.94,87.6l59.08-33.22,26.52-60.1ZM556.32,260.37c5.34-29.79,9.11-60.1-.93-89.51-26.99-10.43-56.5-8.4-84.66-5.7l27.1,62.38c21.5,7.06,39.8,20.66,58.5,32.83ZM343.23,168.97c-6.07.52-10.48-4.33-15.29.85-4.74,5.09-27.78,51.07-24.64,54.37l9.62-3.2,30.31-52.01ZM392.71,174.64c-6.38-7.83-14.69-10.69-20.89-.92,8.49,7.63,12.33,6.4,20.89.92ZM411.23,167.3c-3.22.45-6.76,4.06-8.97,6.42,6.02,8.52,13.89,6.3,20.86,0-3.27-2.6-7.56-7.03-11.89-6.42ZM491.64,224.18c1.69-1.68-7.55-22.54-9.17-26.04-2.57-5.56-15.31-30.89-20.13-31l-10.65,1.83c-1.88,1.87,12.01,19.55,14.11,23,2.94,4.83,18.64,39.36,25.84,32.21ZM362.26,174.68l-14.95-3.64-28.8,49.33c1.25,1.25,9.67-3.04,11.53-4.62,4.55-3.87,26.41-30.51,30.32-36.31,1.07-1.58,2.7-1.81,1.89-4.76ZM476.42,220.37l-29.43-47.8-14.32,2.12c-1.32,1.41,6.17,10.49,7.66,12.31,5.58,6.82,18.04,22.91,23.61,27.79,3.48,3.05,7.74,5.45,12.48,5.58ZM160.6,220.38c4.12-6.49,16.92-15.37,19.48-21.43,2.94-6.98,2.3-18.47,5.22-26.18-17.05,12.26-25.76,25.75-24.7,47.61ZM234.79,172.78c-8.39.63-23.24,5.04-24.56,14.37-3.66,25.92.45,62.96,12.19,86.51,3.69-4.02,11.66-6.47,12.42-12.45,1.01-7.96-5.45-30.73-5.85-41.7-.55-15.15,1.08-32.27,5.8-46.73ZM582.53,180.83l-22.38-8.06c3.56,15.32,6.28,30.93,5.79,46.74-.34,10.89-7.05,34.01-5.83,41.7.44,2.75,8.95,12.1,10.55,12.46,3.1.7,3.92-2.51,4.86-4.59,6.42-14.24,14.83-77.21,7.02-88.26ZM634.33,220.38c-1.1-8-1.24-21.5-4.88-28.42-1.4-2.66-19.61-20.97-21.74-19.17,5.92,7.2,3.37,19.12,6.71,26.59,1.87,4.18,16.33,15.75,19.91,21ZM388.9,184.17c6.16,1.24,12.3,2.5,17.09-2.84-4.33-6.57-16.24-5.49-17.09,2.84ZM335.65,216.57c2.44,2.45,38.76-30.11,43.7-33.33-2.94-3.12-9.23-5.67-13.21-3.89-1.3.58-16.42,18.04-19.04,21.08-1.66,1.93-12.79,14.79-11.45,16.14ZM459.3,216.55c1.89-1.49-28.32-36.21-30.52-37.18-5.06-2.23-9.95,2.53-15.13,2.94l36.23,31.31,9.42,2.93ZM206.23,184.19c-20.02,13.04-24.13,14.04-22.79,39.02,1.27,23.63,9.4,50.38,19.96,71.4l14.18-17.96c-11.35-29.71-13.63-61.08-11.35-92.46ZM392.69,188.03c-4.34-1.21-6.54-2.64-11.29-.97-8.05,2.82-25.71,21.01-32.46,27.59l10.11-4.14,33.63-22.48ZM444.08,214.65c-5.04-6.71-26.48-27.44-33.35-28.57-3.58-.59-6.26-.27-8.47,2.88l41.82,25.69ZM588.69,186.1v46.66l-11.45,43.75,15.23,18.14c4.43-12.48,9.78-24.69,12.78-37.69s6.38-33.61,6.43-47.06c.05-11.46-13.38-19.56-22.99-23.8ZM364.17,212.76h66.59l-33.28-20.82c-11.7,4.91-24.11,12.09-33.31,20.82ZM132.02,300.36c-.1-10.17,2.43-20.34,5.23-30.01,6.58-22.75,21.94-40.52,19.51-65.2l-10.38,19.1c-7.11,19.12-14.53,41.46-16.2,61.86-.25,3.01-1.63,12.98,1.85,14.25ZM664.77,304.17c-.02-25.29-6.19-50.43-14.28-74.24l-12.32-24.78c-4.61,23.2,10.38,37.44,17.17,58.01l9.43,41ZM189.09,315.6l10.78-18.07c-14.51-27.86-19.92-59.27-21.2-90.47-6,6.31-18.54,17.88-18.97,26.8-.7,14.62,7.16,41.63,12.75,55.58,1.91,4.76,9.28,21.25,11.99,24.18,1.57,1.7,1.92,2.58,4.65,1.97ZM609.59,315.6c10.54-23.96,24.61-52.17,24.92-79.04.14-11.79-10.79-21.29-18.25-29.5-2.13,31.45-7.51,62.34-21.56,90.82,1.69,2.96,11.59,20.14,14.89,17.72ZM392.34,220.93c-145.14,7.8-114.25,226.88,25.2,198.57,122.03-24.78,98.37-205.21-25.2-198.57ZM244.32,279.42c8.28-7.28,16.27-14.79,24.91-21.7,5.14-4.12,32-18.67,26.42-25.91-9.15,3.23-17.66,8.12-26,13-5.62,3.29-28.83,17.16-29.08,22.14l3.75,12.47ZM550.61,277.51c.1-5.02,5.56-9.78,2.11-14.34-2.16-2.86-51.58-33.85-53.44-31.36-2.03,12.61,11.02,14.79,19.61,21.3,9.15,6.94,18.06,16.45,26.98,22.51,1.58,1.07,1.82,2.7,4.74,1.89ZM640.03,403.2c26.98-52.05,28.41-114.32-.93-165.7-3.42,30.78-15.2,56.87-27.58,84.64l14.77,31.05,13.74,50.01ZM156.77,239.43c-4.95-1.02-2.96.94-3.99,2.72-9.85,16.97-17.73,49-18.92,68.6-1.82,30.12,5.08,67.8,22.9,92.46.23-29.71,14.42-56.62,26.58-82.87-13.82-24.87-25.11-52.17-26.57-80.91ZM544.91,296.56c-.65-6.01,5.52-9.15,2.08-14.33-3.02-4.54-43.97-37.43-45.81-35.19-.17,12.69,7.62,14.18,14.3,20.9,6.5,6.54,18.96,22.86,24.66,26.73,1.6,1.09,1.86,2.67,4.76,1.88ZM291.86,248.96c-2.69-2.96-45.94,31.03-45.35,36.76l3.51,10.84c2.88.77,3.16-.77,4.77-1.88,2.11-1.45,33.98-34.86,35.27-37.07,1.77-3.03,2.28-5.14,1.8-8.66ZM289.94,264.18c-1.91-2.5-31.85,31.54-34.02,35.6-2.44,4.57-1.04,6.61,2.65,10.07l29.23-37.36,2.14-8.31ZM506.84,264.22l-3.75.89,33.27,46.65c10.49-7.24-5.13-21.51-11.39-28.56-5.76-6.49-14.51-12.15-18.14-18.98ZM229.1,294.65c11.74-8.24,16.51-13.64,6.64-26.62l-12.12,10.63,5.48,15.99ZM571.43,277.7c-4.29,1.04-11.16-12.35-14.16-7.82-7.22,10.88-2.27,16.71,5.75,24.76,3.87.87,2.63-1.52,3.67-3.82.95-2.1,5.4-12.17,4.74-13.12ZM531.59,317.5c-4.23-14.93-15.76-29.08-26.6-39.99l2.99,7.47,23.61,32.52ZM263.99,317.5l25.26-39.99s-26.57,30.66-27.8,34.24l2.54,5.74ZM221.45,283.23c-2.52-2.29-13.65,14.2-16.66,16.17l10.04,16.2c3.7.86,2.38-1.06,3.33-2.39,3.15-4.4,6.21-9.22,8.63-14.08l-5.33-15.9ZM581.04,315.59c7.71-13,10.75-19.91-2.76-30.52-1.67-1.31-2.07-2.51-4.79-1.84-7.49,14.8-5.16,18.25,3.62,31.18l3.93,1.18ZM529.36,320.35c-9.3-10.16-24.39-33.31-24.39-33.31v66.66M244.27,288.95c-14.65,4.86-10.81,13.66-5.66,24.75,12.74-5.39,11.16-14.26,5.66-24.75ZM289.96,353.68c-3.73-11.15-4.24-22.97-4.39-35.33-.11-9.24,1.39-19.89,1.55-29.4l-21.87,31.42M552.56,315.6c10.18-8.59,12.58-21.89-1.9-26.65-6.93,13.67-5.18,14.03,1.9,26.65ZM204.32,304.18c-3.95-2.93-12.53,13.87-14.9,16.52l12.1,17.74c3.79.75,2.32-.81,3.25-2.41,2.55-4.42,4.74-9.37,7.21-13.87l-7.66-17.98ZM230.95,336.55c8.4-14.83,8.21-17.68-.91-32.36l-11.75,16.18,8.73,14.99,3.94,1.19ZM567.72,304.19l-3.9,1.15-7.4,14.99,7.56,16.22,12.66-16.19-8.92-16.18ZM594.36,338.45l10.84-18.06c-2.28-2.76-10.53-18.97-14.58-16.19l-8.93,16.2,8.77,16.91,3.9,1.15ZM250.96,308.03l-8.26,12.7,8.26,11.98c8.01-7.8,7.41-16.64,0-24.68ZM544.9,332.74l7.09-12.37-8.01-12.37c-8,8.13-8.49,17.71.92,24.75ZM284.24,357.51l-22.79-34.27c3.29,12.74,13.04,25.71,22.79,34.27ZM506.89,363.22c10.13-11.77,21.67-25.07,26.6-39.99-8.95,9.27-16.6,21.51-23.57,32.58-1.49,2.36-3.68,4.21-3.04,7.42ZM179.6,433.68c-.51-30.67,6.08-61.86,20.64-88.91l-13.98-19.64c-11.14,21.84-29.11,60.07-26.72,84.84.31,3.19,17.49,26.59,20.06,23.7ZM221.44,357.5c8.6-15.02,4.94-21.58-7.56-32.37l-7.38,19.6c1.91,2.67,12.27,14.74,14.94,12.77ZM244.27,351.79c5.88-11.46,3.91-16.51-2.82-26.65l-8.53,16.23c.07,3.31,9.02,12.11,11.35,10.42ZM550.65,353.7c.88.91,11.24-9.71,11-12.67l-8.17-15.89-8.16,12.66,5.34,15.9ZM581.05,325.14c-4.38-1.11-3.12.88-4.32,2.4-9.76,12.39-10.37,15.62-3.23,29.96,2.67,1.96,14.45-10.79,14.8-14.57l-7.24-17.79ZM615.34,433.69c5.13-3.84,15.29-13.92,17.56-19.53,4.35-10.73-3.44-39.2-7.19-50.86-1.14-3.55-15.8-40.97-19.87-38.17l-11.1,19.67c13.66,27.51,20.45,58.17,20.6,88.89ZM503.07,378.44c3.57.84,4.53-1.99,6.66-3.79,5.31-4.45,30.71-32.39,30.73-37.13,0-2.37-3.48-5.59-3.17-8.57l-34.22,49.49ZM259.49,330.86c-5-1.51-6.17,5.5-4.75,9.37,3.91,10.7,26.56,29.63,35.21,38.23.43-3.47,0-5.66-1.78-8.68-4.45-7.6-18.16-22.34-24.5-30.72-1.87-2.48-3.73-5.02-4.18-8.21ZM636.27,437.5c19.21-27.28,26.86-64.11,28.5-97.12l-11.85,44.3c-1.61,8.34-12.87,20.67-14.38,27.51-1.66,7.56.57,17.2-2.28,25.32ZM156.76,435.59c2.29-17.78-4.83-30.5-12.85-45.21l-13.75-48.1c-.19,19.74,4.53,40.35,10.43,59.05,3.49,11.07,8.22,25.84,16.17,34.26ZM291.86,393.68c5.33-5.87-20.22-26.45-24.78-31.36-2.52-2.72-14.11-20.37-17.05-18.14-.75,6.48-5.73,9.95-2.07,16.25.74,1.27,17.45,15.79,20.18,17.97,2.5,1.99,22.21,16.94,23.72,15.28ZM544.91,344.17c-2.92-2.71-18.23,19.17-20.86,21.95-8.42,8.91-21.01,14.28-22.88,27.55,3.04,2.87,45.94-29.94,47.18-37.46.5-3.02-4.42-7.98-3.43-12.04ZM238.58,372.74l3.19-14.32-9.83-12.33c-10.95,12.72-10.49,21.83,6.64,26.66ZM565.83,346.08c-11.74,8.24-16.52,13.63-6.65,26.62l12.08-10.71-5.42-15.91ZM206.23,456.54c-3.93-31.7,1.09-62.27,11.47-92.32l-15.23-16.23c-8.86,16.31-27.46,81.08-16.58,94.68,1.08,1.34,19.61,14.87,20.34,13.88ZM588.69,407.98c1.61,15.29-1.19,32.99,0,48.57,7.04-4.19,20.53-12.1,22.43-20.39,2.48-10.84-2.9-40.65-5.86-52.38-3.1-12.33-8.9-23.76-12.79-35.78-2.64-.54-2.42-.39-3.93,1.21-3.86,4.1-7.84,10.91-12.62,14.94,4.79,12.54,11.39,30.65,12.78,43.83ZM293.17,400c-2.02-2.64-23.45-15.51-28.84-19.69-2.22-1.72-18.97-17.89-20.01-17.08-.22,5.52-6.52,11.56-1.93,16.15,6.65,4.44,49.26,33.3,53.28,29.55-.39-2.55-1.02-7-2.49-8.92ZM550.61,363.23c-3.27-.94-3.15,1.01-4.5,2.1-5.06,4.1-10.32,10.82-15.52,14.98-6.24,5-26.4,16.41-29.41,20.08-2.38,2.9-2.18,5.07-1.91,8.54,3.35,3.78,48.89-26.79,54.89-30.79l-3.55-14.9ZM234.78,469.86c-8.69-29.64-6.99-60.98,1.24-90.53l-14.53-12.3c-9.54,24.91-15.48,60.02-11.32,86.53,1.54,9.84,15.84,14.65,24.61,16.3ZM560.15,469.86c1.59,1.46,18.96-6.67,20.87-8.61,11.03-11.24.35-78.01-7.58-94.22l-14.48,12.28c7.15,30.04,10.68,60.57,1.19,90.55ZM297.09,415.13l-21.71-9.69-36.77-23.17c-5.21,15.28-9.19,81.17,1.93,90.42s67.53,6.41,83.67,4.8c1.49-1.39-13.47-26.58-15.54-31.09-4.58-9.97-8.25-20.82-11.57-31.27ZM470.72,477.48c28.16,2.69,57.68,4.72,84.67-5.71,10.12-29.31,6.5-59.78.93-89.51-18.84,12.15-37.75,24.06-58.49,32.85l-27.12,62.37ZM491.63,416.55c-12.9,3.22-13.44,14.01-19.38,23.44-6.03,9.56-12.36,19.29-19.63,27.98l1,4.74c1.3.89,8.74,2.75,10.23,2.47,5.83-1.11,30.77-54.85,27.78-58.62ZM301.38,418.47c4.13,8.75,22.14,55.23,29.69,56.7l10.24-2.48c2.42-1.69,2.31-2.22,1-4.74-2.42-4.64-9.68-11.69-13.18-17.29-4.26-6.82-17.79-39.51-27.75-32.2ZM185.32,467.95c-4.25-7.32-2.1-19.46-5.19-26.21-1.79-3.9-6.65-4.96-9.16-7.98-3.49-4.2-6.19-10.18-10.37-13.4.15,8.07.23,20.74,3.32,28.08,1.3,3.1,19.05,21.44,21.4,19.51ZM609.63,467.97c19.71-9.98,24.14-26.64,24.7-47.61-3.57,5.25-18.04,16.82-19.91,21-2.74,6.12-2.45,19.41-4.79,26.61ZM318.51,422.27c-2,1.99,25.35,44.69,28.55,46.7,3.8,2.38,10.8-.44,14.28-2.89,1.08-1.42-3.54-6.89-4.84-8.54-5.13-6.5-20.24-25.07-25.52-29.69-3.49-3.06-7.73-5.44-12.48-5.58ZM476.42,422.27c-13.08,0-18.16,14.53-25.65,22.87-2.19,2.44-20.89,19.76-20,20.9,5.29.35,12.06,6.08,17.1,2.92,3.19-2,30.6-44.8,28.55-46.7ZM379.38,458.47c-7.61-.82-39.79-36.09-43.74-32.4,1.87,5.56,7.61,11.49,11.45,16.13,2.78,3.36,17.05,20.23,19.04,21.07,2.28.96,12.2-1.46,13.25-4.8ZM459.29,426.08c-2.44-2.29-11.9,5.85-14.21,7.66-9.74,7.66-19.38,18.01-29.51,25.66,2.97,3.13,9.18,5.67,13.2,3.87,1.88-.84,18.08-19.53,20.96-22.97,1.5-1.8,10.92-12.94,9.55-14.22ZM444.07,427.98l-41.84,25.69c6.07,12.29,23.71-10.16,30.47-13.29l11.37-12.4ZM392.69,452.76c-15.5-4.11-26.72-19.82-41.84-22.86,6.07,5.44,26.19,25.83,32.34,27.56,1.56.44,9.44-1.93,9.51-4.7ZM430.76,429.88h-68.5l22.27,14.85,12.94,5.97,33.29-20.83ZM213.85,487.01c.87-.94-5.85-23.39-6.71-24.69-2.18-3.27-18.33-9.72-21.8-15.3-.93,1.23,4.01,24.71,5.59,27.24,1.04,1.67,21.82,13.94,22.92,12.75ZM579.17,487c22.54-5.51,27.93-18.28,30.42-39.98-4.86,5.66-19.16,11.04-22.61,16.4-3.61,5.62-3.65,17.31-7.82,23.58ZM404.12,458.47c-2.67-2.32-17.7-2.32-15.2,2.82,3.06,6.29,15.34,5.38,15.2-2.82ZM392.7,469.85c-6.85-10.07-11.38-6.08-20.93-3.77-1.87,2.03,5.03,8.56,7.06,9.26l13.87-5.49ZM423.15,466.09l-12.38-3.75-10.45,7.52,13.88,5.54,8.95-9.3ZM194.81,494.63c-3.02-14.46-11.39-22.19-22.79-30.47-1.85,2.12,17.37,29,22.79,30.47ZM236.26,476.02c-2.56-2.57-18.27-5.86-22.38-9.95-1.61,2.15,4.54,23.8,8.85,26.35l21.56,6.01c.86-.82-7.19-21.57-8.03-22.41ZM550.64,498.43c21.04-1.83,28.89-11.8,30.41-32.37-4.78,4.51-18.37,5.91-21.85,9.53-1.4,1.45-9.66,21.74-8.56,22.84ZM598.22,496.54c5.16-1.04,24.37-28.75,22.79-30.47-13.64,6.1-19.37,16.39-22.79,30.47ZM375.58,479.37c-6.95-12.26-13.19-9.89-24.73-5.66l8.9,11.53c6.09,1.31,10.3-4.88,15.83-5.87ZM442.17,473.71c-10.88-4.59-17.56-4.99-24.73,5.67,11.79,5.09,19.33,9.96,24.73-5.67ZM409.83,477.52c-11.67-4.15-10.83-8.94-22.33-.53-1.28.94-3.26-.37-2.38,3.33l12.01,8.29c1.11-1.92,15.81-7.82,12.7-11.1ZM356.55,488.89c-3.86-11.21-11.39-15.03-22.84-11.39-2.37,2.44,6.47,13.12,8.9,15.03l13.94-3.64ZM438.38,488.9l13.96,3.64,8.82-12.2-13.94-4.54-8.85,13.1ZM250.48,499.86c9.33,8.94,86.57,1.25,87.01-6.17l-10.29-13.65c-27.89,4.95-57.38,5.3-84.79-2.54-1.43,1.54,6.1,20.47,8.07,22.36ZM554.44,477.51c-28.23,7.12-58.09,7.93-86.71,2.53l-10.28,13.65c13.13,9.09,79.58,15.3,87.59,5.31l9.4-21.49ZM217.15,493.24c-3.89-3.9-17.26-5.91-21.38-11.93-1.44-.3-1.22,1.84-.91,2.81,5.05,16.02,17.59,29.62,34.2,33.37.91-.99-10.95-23.29-11.91-24.25ZM378.79,481.6c-1.8.16-14.58,7.19-14.59,8.28l12.61,12.1,15.86-10.19c0-.86-11.99-10.34-13.88-10.18ZM414.58,481.97c-3.43.03-10.73,7.79-14.22,9.81l17.77,10.17,10.74-12.03c-.34-1.47-12.52-7.95-14.29-7.94ZM598.19,483.22c-18.57,4.66-27.19,17.61-34.24,34.25,19.2-2.17,28.77-16.95,34.24-34.25ZM371.77,506.03c1.93-2.77-9.78-12.59-12.33-14.65l-12.35,6.1,12.6,14.02,12.08-5.47ZM437.54,512.22l10.29-14.75-14.02-6.4-10.66,14,14.39,7.15ZM415.46,505.57l-19.62-10.63c-2.1,3.47-17.3,9.02-14.54,13l16.16,10.89c.92,0,13.49-9.3,14.95-10.7,1.59-1.51,3.04-2.56,3.04-2.56ZM531.61,527c21.47.24,31.92-11.05,38.03-30.46l-24.25,8.09-13.78,22.37ZM249.58,504.58l-24.3-6.13c5.9,19.43,17.64,28.26,38.04,28.54l-13.74-22.41ZM342.92,498.71c-24.46,6.61-47.51,10.28-73.02,9.33-2.84-.11-16.3-4.68-14.17.84l15.22,19.05c6.52,2.97,34.34-.55,54.53-5.27,18.05-4.21,29.02-9.53,29.02-9.53,0,0-.19-.43-1.74-2.32-3.69-4.51-3.66-4.38-9.85-12.11ZM539.21,506.07c-28.54,4.76-56.85.23-84.43-7.2-3.32,1.47-14.76,13.73-12.6,16.69,24.63,8.09,28.54,8.53,48.26,11.53,11.04,1.68,21.35,3.63,30.67,1.8,4.45-.87,19.92-21.26,18.1-22.81ZM306.85,531.74c-9.37.94-17.52,2.39-27.04,3.08l21.07,18.56c32.93-1.7,63.73-13.89,91.81-30.22l-1.2-3.93-15.27-10.96c-6.52,3.66-6.77,3.58-16.09,8.77-20.22,8.17-20.97,8.54-32.73,11.07-7.48,1.61-15.11,3.08-20.54,3.63ZM437.5,516.88c-6.36-3.79-6.43-3.79-18.01-9.01l-16.05,11.37-1.21,3.93c22.57,12.47,47.69,25.11,73.77,28.08,20.88,2.37,25.63-2.13,40.36-15.69.8-4.31-1.88-2.63-4.71-2.83-18.09-1.3-59.35-7.02-74.15-15.85ZM246.2,538.42c-6.44-11.83-14.59-16.06-26.62-20.93-.88,3.75,1.94,4.51,3.97,6.48,2.6,2.53,20.37,16.45,22.65,14.45ZM573.46,519.41c-13.78,2.25-20.51,10.39-28.54,20.91,2.41,2.12,27.18-15.72,28.54-20.91ZM487.84,555.6c-32.82.34-62.29-15.29-90.38-30.38-28.05,16.4-56.53,27.15-88.49,33.22,49.41,27.45,106.9,31.28,159.24,8.91,6.29-2.69,15.35-6.65,19.63-11.75ZM289.96,551.75c-13.69-14.71-24.34-23.1-45.66-22.82,11.84,16.61,24.5,24.58,45.66,22.82ZM548.73,528.93c-19.57-.52-31.58,8.78-43.76,22.82,20.62,2.3,33.32-6.01,43.76-22.82ZM377.48,584.17c-13.55-.54-28.51-4.59-41.42-9.02-21.11-7.26-37.98-22.48-61.31-19.54,1,2.9,6.81,5.27,9.54,6.62,24.21,11.95,50.82,18.65,77.26,23.61l15.93-1.65ZM518.29,555.6c-22.34-2.47-37.94,12.6-58,19.06l-42.84,11.37c26.85,0,56.68-7.75,81.19-18.7,6.36-2.84,15.11-6.38,19.65-11.74Z"/>
    <path class="cls-1" d="M129.22,488.89C29.52,319.97,94.38,105.44,274.81,27.13c143.26-62.17,311.28-14.33,401.61,111.19l22.61-13.16,5.7,55.22-52.43-27.92,22.3-12.98c-36.79-39.91-78.36-73.64-129.17-93.88C287.35-57.17,22.84,180.77,114.88,448.01"/>
    <path class="cls-1" d="M396.38,248.68c-5.4,61.9-9.77,66.27-71.67,71.67,61.9,5.4,66.27,9.77,71.67,71.67,5.4-61.9,9.77-66.27,71.67-71.67-61.9-5.4-66.27-9.77-71.67-71.67Z"/>
  </g>
</svg>