<?xml version="1.0" encoding="UTF-8"?>
<svg id="Layer_2" data-name="Layer 2" xmlns="http://www.w3.org/2000/svg" viewBox="0 0 625.58 126.61">
  <g id="Layer_1-2" data-name="Layer 1">
    <path d="M501.1,117.48l-8.84,6.38V35.62l8.84-7.11v88.97Z"/>
    <path d="M65.84,111.22c-.03-2.68-.05-2.88-.14-4.69-.09-1.82-.13-3.83-.13-6.05V29.59l8.91,6.45v88.9h0c-5.75,0-11.13-2.82-14.4-7.55L12.37,48.41c-.67-.97-1.32-1.97-1.96-2.99-.64-1.02-.67-1.03-1.77-2.97h0c.03,1.88.04,1.89.1,3.3.07,1.42.1,3.19.1,5.32v73.88l-8.84-6.38V29.59h0c6.12,0,11.85,3.01,15.32,8.05l46.52,67.55c.8,1.2,1.52,2.32,2.16,3.36"/>
    <path d="M175.35,126.61c-6.87,0-13.06-1.25-18.55-3.76-5.5-2.5-10.16-5.93-14-10.27-3.83-4.34-6.78-9.45-8.84-15.33-2.06-5.87-3.09-12.18-3.09-18.92,0-7.45,1.03-14.26,3.09-20.45,2.06-6.18,5.06-11.48,9.01-15.89,3.95-4.41,8.78-7.85,14.5-10.31,5.72-2.46,12.23-3.69,19.55-3.69,6.74,0,12.79,1.21,18.15,3.62,5.36,2.42,9.93,5.76,13.7,10.04,3.77,4.28,6.66,9.34,8.68,15.19,2.02,5.85,3.03,12.21,3.03,19.08,0,7.23-.99,13.93-2.96,20.11-1.97,6.18-4.88,11.54-8.71,16.06-3.83,4.52-8.56,8.07-14.16,10.64-5.61,2.57-12.07,3.86-19.38,3.86ZM176.08,36.04c-5.76,0-10.87,1.1-15.33,3.29s-8.21,5.17-11.27,8.91c-3.06,3.75-5.38,8.14-6.95,13.17-1.57,5.03-2.38,10.38-2.43,16.06-.04,5.41.65,10.58,2.09,15.53,1.44,4.94,3.61,9.31,6.52,13.1,2.9,3.79,6.57,6.82,11,9.08,4.43,2.26,9.62,3.39,15.56,3.39s11.16-1.03,15.66-3.09c4.5-2.06,8.26-4.92,11.27-8.58,3.01-3.66,5.29-8.01,6.82-13.07,1.53-5.05,2.29-10.57,2.29-16.56,0-5.59-.68-10.88-2.03-15.89-1.35-5.01-3.46-9.39-6.32-13.13-2.86-3.75-6.51-6.72-10.94-8.91-4.43-2.19-9.75-3.29-15.96-3.29Z"/>
    <polygon points="276.95 124.94 276.95 29.59 323.43 29.59 318.78 37.7 285.79 37.7 285.79 72.68 317.96 72.68 317.61 80.66 285.79 80.66 285.79 116.9 321.05 116.9 325.56 124.94 276.95 124.94"/>
    <polygon points="299.36 21.81 292.18 21.81 307.34 0 322.68 0 299.36 21.81"/>
    <path d="M410.01,37.7v79.62l-8.84,7.62V37.7h-27.46l4.11-8.11h59.72l-4.15,8.11h-23.38Z"/>
    <path d="M165.95,111.64l-8.84-2.38V45.06l8.84-3.39v69.98Z"/>
    <path d="M180.13,114.34h-8.84V38.04h8.84v76.29Z"/>
    <path d="M194.72,107.52l-8.84,4.4V41.71l8.84,3.11v62.69Z"/>
    <path d="M625.58,121.42c-7.36,3.46-15.76,5.19-25.2,5.19-6.74,0-12.86-1.19-18.35-3.56-5.5-2.37-10.19-5.66-14.06-9.87-3.88-4.21-6.87-9.22-8.98-15.03-2.11-5.81-3.16-12.15-3.16-19.02,0-7.23,1.12-13.95,3.36-20.18,2.24-6.23,5.44-11.64,9.61-16.22,4.17-4.59,9.21-8.19,15.13-10.81,5.92-2.62,12.56-3.92,19.92-3.92,8.11,0,15.36,1.24,21.74,3.72v9.44c-6.83-3.41-14.12-5.12-21.88-5.12-6.16,0-11.64,1.06-16.42,3.19s-8.82,5.09-12.1,8.88c-3.28,3.79-5.79,8.27-7.51,13.43-1.73,5.16-2.59,10.81-2.59,16.92,0,5.5.77,10.67,2.33,15.53,1.55,4.85,3.85,9.1,6.88,12.73,3.04,3.64,6.82,6.52,11.34,8.64,4.52,2.13,9.77,3.19,15.76,3.19,9.18,0,17.24-1.93,24.2-5.79v8.64Z"/>
  </g>
</svg>